<svg width="40" height="40" viewBox="0 0 40 40" fill="none" xmlns="http://www.w3.org/2000/svg">
<path d="M32.95 18.75H26.2167C22.8667 18.75 21.25 17.1167 21.25 13.7834V7.05004C21.25 3.70004 22.8833 2.08337 26.2167 2.08337H32.95C36.3 2.08337 37.9167 3.71671 37.9167 7.05004V13.7834C37.9167 17.1167 36.2833 18.75 32.95 18.75ZM26.2167 4.58337C24.25 4.58337 23.75 5.08337 23.75 7.05004V13.7834C23.75 15.75 24.25 16.25 26.2167 16.25H32.95C34.9167 16.25 35.4167 15.75 35.4167 13.7834V7.05004C35.4167 5.08337 34.9167 4.58337 32.95 4.58337H26.2167Z" fill="#474747"/>
<path d="M13.782 18.75H7.0487C3.6987 18.75 2.08203 17.2667 2.08203 14.2V6.63337C2.08203 3.56671 3.71536 2.08337 7.0487 2.08337H13.782C17.132 2.08337 18.7487 3.56671 18.7487 6.63337V14.1834C18.7487 17.2667 17.1154 18.75 13.782 18.75ZM7.0487 4.58337C4.81536 4.58337 4.58203 5.21671 4.58203 6.63337V14.1834C4.58203 15.6167 4.81536 16.2334 7.0487 16.2334H13.782C16.0154 16.2334 16.2487 15.6 16.2487 14.1834V6.63337C16.2487 5.20004 16.0154 4.58337 13.782 4.58337H7.0487Z" fill="#474747"/>
<path d="M13.782 37.9167H7.0487C3.6987 37.9167 2.08203 36.2833 2.08203 32.95V26.2167C2.08203 22.8667 3.71536 21.25 7.0487 21.25H13.782C17.132 21.25 18.7487 22.8833 18.7487 26.2167V32.95C18.7487 36.2833 17.1154 37.9167 13.782 37.9167ZM7.0487 23.75C5.08203 23.75 4.58203 24.25 4.58203 26.2167V32.95C4.58203 34.9167 5.08203 35.4167 7.0487 35.4167H13.782C15.7487 35.4167 16.2487 34.9167 16.2487 32.95V26.2167C16.2487 24.25 15.7487 23.75 13.782 23.75H7.0487Z" fill="#474747"/>
<path d="M34.168 30.4166H24.168C23.4846 30.4166 22.918 29.85 22.918 29.1666C22.918 28.4833 23.4846 27.9166 24.168 27.9166H34.168C34.8513 27.9166 35.418 28.4833 35.418 29.1666C35.418 29.85 34.8513 30.4166 34.168 30.4166Z" fill="#474747"/>
<path d="M29.168 35.4166C28.4846 35.4166 27.918 34.85 27.918 34.1666V24.1666C27.918 23.4833 28.4846 22.9166 29.168 22.9166C29.8513 22.9166 30.418 23.4833 30.418 24.1666V34.1666C30.418 34.85 29.8513 35.4166 29.168 35.4166Z" fill="#474747"/>
</svg>
