<svg width="40" height="40" viewBox="0 0 40 40" fill="none" xmlns="http://www.w3.org/2000/svg">
<path d="M31.6165 37.9167H8.2832C2.0332 37.9167 2.0332 34.45 2.0332 31.6667V30C2.0332 28.4 3.34987 27.0834 4.94987 27.0834H34.9499C36.5499 27.0834 37.8665 28.4 37.8665 30V31.6667C37.8665 34.45 37.8665 37.9167 31.6165 37.9167ZM4.94987 29.5834C4.71654 29.5834 4.5332 29.7667 4.5332 30V31.6667C4.5332 34.4 4.5332 35.4167 8.2832 35.4167H31.6165C35.3665 35.4167 35.3665 34.4 35.3665 31.6667V30C35.3665 29.7667 35.1832 29.5834 34.9499 29.5834H4.94987Z" fill="#474747"/>
<path d="M34.5326 29.5834H5.44922C4.76589 29.5834 4.19922 29.0167 4.19922 28.3334V21.6667C4.19922 14.8334 9.04922 8.83337 15.7159 7.41671C16.6992 7.20004 17.7326 7.08337 18.7826 7.08337H21.1992C22.2659 7.08337 23.2992 7.20004 24.2826 7.41671C30.9492 8.85004 35.7826 14.85 35.7826 21.6667V28.3334C35.7826 29.0167 35.2326 29.5834 34.5326 29.5834ZM6.69922 27.0834H33.2826V21.6667C33.2826 16.0167 29.2826 11.05 23.7492 9.85004C22.9326 9.66671 22.0826 9.58337 21.1992 9.58337H18.7826C17.9159 9.58337 17.0659 9.66671 16.2492 9.85004C10.7159 11.0334 6.69922 16 6.69922 21.6667V27.0834Z" fill="#474747"/>
<path d="M15.982 9.88337C15.432 9.88337 14.932 9.51671 14.782 8.96671C14.6487 8.48337 14.582 8.00004 14.582 7.50004C14.582 4.51671 17.0154 2.08337 19.9987 2.08337C22.982 2.08337 25.4154 4.51671 25.4154 7.50004C25.4154 8.00004 25.3487 8.48337 25.2154 8.96671C25.0487 9.60004 24.4154 10 23.7487 9.85004C22.932 9.66671 22.082 9.58337 21.1987 9.58337H18.782C17.9154 9.58337 17.0654 9.66671 16.2487 9.85004C16.1654 9.86671 16.082 9.88337 15.982 9.88337ZM18.782 7.08337H21.1987C21.7654 7.08337 22.3487 7.11671 22.8987 7.18337C22.7487 5.71671 21.4987 4.58337 19.9987 4.58337C18.4987 4.58337 17.2654 5.71671 17.0987 7.18337C17.6654 7.11671 18.2154 7.08337 18.782 7.08337Z" fill="#474747"/>
<path d="M25 19.5834H15C14.3167 19.5834 13.75 19.0167 13.75 18.3334C13.75 17.65 14.3167 17.0834 15 17.0834H25C25.6833 17.0834 26.25 17.65 26.25 18.3334C26.25 19.0167 25.6833 19.5834 25 19.5834Z" fill="#474747"/>
</svg>
