<svg width="24" height="24" viewBox="0 0 24 24" fill="none" xmlns="http://www.w3.org/2000/svg">
<path d="M9.57141 18.82C9.38141 18.82 9.19141 18.75 9.04141 18.6L2.97141 12.53C2.68141 12.24 2.68141 11.76 2.97141 11.47L9.04141 5.4C9.33141 5.11 9.81141 5.11 10.1014 5.4C10.3914 5.69 10.3914 6.17 10.1014 6.46L4.56141 12L10.1014 17.54C10.3914 17.83 10.3914 18.31 10.1014 18.6C9.96141 18.75 9.76141 18.82 9.57141 18.82Z" fill="#111111"/>
<path d="M20.4999 12.75H3.66992C3.25992 12.75 2.91992 12.41 2.91992 12C2.91992 11.59 3.25992 11.25 3.66992 11.25H20.4999C20.9099 11.25 21.2499 11.59 21.2499 12C21.2499 12.41 20.9099 12.75 20.4999 12.75Z" fill="#111111"/>
</svg>
